<svg version="1.0" preserveAspectRatio="xMidYMid meet" viewBox="73.94999999999999 137.09999670960002 246.75 110.249997354" zoomAndPan="magnify" xmlns:xlink="http://www.w3.org/1999/xlink" xmlns="http://www.w3.org/2000/svg" style="max-height: 500px" width="246.75" height="110.249997354"><defs><g/><clipPath id="3188857982"><path clip-rule="nonzero" d="M 284.566406 201.890625 L 317.667969 201.890625 L 317.667969 234.992188 L 284.566406 234.992188 Z M 284.566406 201.890625"/></clipPath><clipPath id="86390c4e4c"><path clip-rule="nonzero" d="M 301.117188 201.890625 C 291.976562 201.890625 284.566406 209.300781 284.566406 218.441406 C 284.566406 227.582031 291.976562 234.992188 301.117188 234.992188 C 310.257812 234.992188 317.667969 227.582031 317.667969 218.441406 C 317.667969 209.300781 310.257812 201.890625 301.117188 201.890625 Z M 301.117188 201.890625"/></clipPath><clipPath id="e621434d0c"><path clip-rule="nonzero" d="M 290.242188 207.890625 L 311.992188 207.890625 L 311.992188 228.890625 L 290.242188 228.890625 Z M 290.242188 207.890625"/></clipPath><clipPath id="952b2ceb48"><path clip-rule="nonzero" d="M 206.757812 139.078125 L 284.753906 139.078125 L 284.753906 189 L 206.757812 189 Z M 206.757812 139.078125"/></clipPath></defs><g fill-opacity="1" fill="#000000"><g transform="translate(75.770558, 233.099574)"><g><path d="M 0.828125 -9.84375 L 11.21875 -9.84375 C 11.40625 -9.03125 11.882812 -8.335938 12.65625 -7.765625 C 13.425781 -7.191406 14.769531 -6.90625 16.6875 -6.90625 C 18.53125 -6.90625 19.785156 -7.117188 20.453125 -7.546875 C 21.117188 -7.972656 21.453125 -8.425781 21.453125 -8.90625 C 21.453125 -9.226562 21.285156 -9.554688 20.953125 -9.890625 C 20.617188 -10.222656 19.925781 -10.546875 18.875 -10.859375 C 17.820312 -11.171875 16.210938 -11.457031 14.046875 -11.71875 C 10.796875 -12.125 8.25 -12.738281 6.40625 -13.5625 C 4.570312 -14.394531 3.265625 -15.4375 2.484375 -16.6875 C 1.710938 -17.945312 1.328125 -19.382812 1.328125 -21 C 1.328125 -22.59375 1.832031 -24.078125 2.84375 -25.453125 C 3.863281 -26.835938 5.421875 -27.960938 7.515625 -28.828125 C 9.617188 -29.691406 12.289062 -30.125 15.53125 -30.125 C 19.03125 -30.125 21.875 -29.65625 24.0625 -28.71875 C 26.257812 -27.78125 27.910156 -26.519531 29.015625 -24.9375 C 30.128906 -23.351562 30.796875 -21.5625 31.015625 -19.5625 L 20.625 -19.5625 C 20.476562 -20.445312 20.0625 -21.144531 19.375 -21.65625 C 18.695312 -22.175781 17.472656 -22.4375 15.703125 -22.4375 C 14.046875 -22.4375 12.921875 -22.222656 12.328125 -21.796875 C 11.734375 -21.378906 11.4375 -20.953125 11.4375 -20.515625 C 11.4375 -20.140625 11.601562 -19.785156 11.9375 -19.453125 C 12.269531 -19.128906 12.976562 -18.828125 14.0625 -18.546875 C 15.15625 -18.265625 16.828125 -17.976562 19.078125 -17.6875 C 22.242188 -17.320312 24.75 -16.703125 26.59375 -15.828125 C 28.4375 -14.960938 29.742188 -13.894531 30.515625 -12.625 C 31.285156 -11.351562 31.671875 -9.910156 31.671875 -8.296875 C 31.671875 -6.785156 31.144531 -5.328125 30.09375 -3.921875 C 29.050781 -2.523438 27.421875 -1.382812 25.203125 -0.5 C 22.992188 0.382812 20.15625 0.828125 16.6875 0.828125 C 13.007812 0.828125 10.046875 0.378906 7.796875 -0.515625 C 5.546875 -1.421875 3.875 -2.6875 2.78125 -4.3125 C 1.695312 -5.9375 1.046875 -7.78125 0.828125 -9.84375 Z M 0.828125 -9.84375"/></g></g></g><g fill-opacity="1" fill="#000000"><g transform="translate(108.549982, 233.099574)"><g><path d="M 23.109375 -30.125 C 25.316406 -30.125 27.347656 -29.523438 29.203125 -28.328125 C 31.066406 -27.128906 32.5625 -25.414062 33.6875 -23.1875 C 34.8125 -20.957031 35.375 -18.3125 35.375 -15.25 L 35.375 -14.046875 C 35.375 -10.984375 34.8125 -8.335938 33.6875 -6.109375 C 32.5625 -3.878906 31.066406 -2.164062 29.203125 -0.96875 C 27.347656 0.226562 25.316406 0.828125 23.109375 0.828125 C 21.191406 0.828125 19.410156 0.3125 17.765625 -0.71875 C 16.128906 -1.75 14.8125 -3.242188 13.8125 -5.203125 L 13.8125 11.0625 L 3.203125 11.0625 L 3.203125 -29.296875 L 8.1875 -29.296875 L 11.71875 -20.453125 C 12.457031 -23.546875 13.859375 -25.929688 15.921875 -27.609375 C 17.984375 -29.285156 20.378906 -30.125 23.109375 -30.125 Z M 19.296875 -8.34375 C 20.953125 -8.34375 22.265625 -8.867188 23.234375 -9.921875 C 24.210938 -10.972656 24.703125 -12.550781 24.703125 -14.65625 C 24.703125 -16.75 24.210938 -18.320312 23.234375 -19.375 C 22.265625 -20.425781 20.953125 -20.953125 19.296875 -20.953125 C 17.671875 -20.953125 16.347656 -20.414062 15.328125 -19.34375 C 14.316406 -18.28125 13.8125 -16.71875 13.8125 -14.65625 C 13.8125 -12.625 14.316406 -11.0625 15.328125 -9.96875 C 16.347656 -8.882812 17.671875 -8.34375 19.296875 -8.34375 Z M 19.296875 -8.34375"/></g></g></g><g fill-opacity="1" fill="#000000"><g transform="translate(145.309375, 233.099574)"><g><path d="M 17.03125 -30.125 C 21.925781 -30.125 25.585938 -28.925781 28.015625 -26.53125 C 30.453125 -24.132812 31.671875 -20.613281 31.671875 -15.96875 L 31.671875 0 L 26.703125 0 L 23.546875 -7.625 C 22.703125 -4.9375 21.191406 -2.851562 19.015625 -1.375 C 16.835938 0.09375 14.164062 0.828125 11 0.828125 C 7.9375 0.828125 5.59375 0.101562 3.96875 -1.34375 C 2.351562 -2.800781 1.546875 -4.582031 1.546875 -6.6875 C 1.546875 -9.851562 2.804688 -12.300781 5.328125 -14.03125 C 7.859375 -15.769531 11.8125 -17.046875 17.1875 -17.859375 L 21.125 -18.46875 C 20.96875 -19.675781 20.554688 -20.546875 19.890625 -21.078125 C 19.234375 -21.617188 18.242188 -21.890625 16.921875 -21.890625 C 15.628906 -21.890625 14.671875 -21.628906 14.046875 -21.109375 C 13.421875 -20.597656 13.015625 -19.921875 12.828125 -19.078125 L 2.21875 -19.078125 C 2.507812 -21.285156 3.195312 -23.21875 4.28125 -24.875 C 5.375 -26.53125 6.96875 -27.816406 9.0625 -28.734375 C 11.164062 -29.660156 13.820312 -30.125 17.03125 -30.125 Z M 14.765625 -7.234375 C 16.046875 -7.234375 17.1875 -7.507812 18.1875 -8.0625 C 19.1875 -8.625 19.96875 -9.34375 20.53125 -10.21875 C 21.101562 -11.101562 21.390625 -12.066406 21.390625 -13.109375 L 19.734375 -12.828125 C 14.835938 -12.015625 12.390625 -10.742188 12.390625 -9.015625 C 12.390625 -8.535156 12.582031 -8.117188 12.96875 -7.765625 C 13.351562 -7.410156 13.953125 -7.234375 14.765625 -7.234375 Z M 14.765625 -7.234375"/></g></g></g><g fill-opacity="1" fill="#000000"><g transform="translate(179.360181, 233.099574)"><g><path d="M 1.375 -14.046875 L 1.375 -15.25 C 1.375 -18.238281 2.007812 -20.847656 3.28125 -23.078125 C 4.5625 -25.304688 6.40625 -27.035156 8.8125 -28.265625 C 11.226562 -29.503906 14.132812 -30.125 17.53125 -30.125 C 22.164062 -30.125 25.8125 -28.976562 28.46875 -26.6875 C 31.125 -24.40625 32.65625 -21.296875 33.0625 -17.359375 L 22.171875 -17.359375 C 21.617188 -19.898438 20.015625 -21.171875 17.359375 -21.171875 C 15.773438 -21.171875 14.492188 -20.632812 13.515625 -19.5625 C 12.535156 -18.5 12.046875 -16.863281 12.046875 -14.65625 C 12.046875 -12.4375 12.535156 -10.789062 13.515625 -9.71875 C 14.492188 -8.65625 15.773438 -8.125 17.359375 -8.125 C 20.015625 -8.125 21.632812 -9.394531 22.21875 -11.9375 L 33.109375 -11.9375 C 32.703125 -8 31.171875 -4.882812 28.515625 -2.59375 C 25.867188 -0.3125 22.207031 0.828125 17.53125 0.828125 C 14.132812 0.828125 11.226562 0.210938 8.8125 -1.015625 C 6.40625 -2.253906 4.5625 -4 3.28125 -6.25 C 2.007812 -8.5 1.375 -11.097656 1.375 -14.046875 Z M 1.375 -14.046875"/></g></g></g><g fill-opacity="1" fill="#000000"><g transform="translate(213.742647, 233.099574)"><g><path d="M 33.109375 -16.53125 C 33.109375 -15.019531 33.035156 -13.65625 32.890625 -12.4375 L 11.609375 -12.4375 C 11.867188 -10.632812 12.445312 -9.34375 13.34375 -8.5625 C 14.25 -7.789062 15.382812 -7.40625 16.75 -7.40625 C 18.1875 -7.40625 19.253906 -7.632812 19.953125 -8.09375 C 20.648438 -8.5625 21.1875 -9.179688 21.5625 -9.953125 L 32.609375 -9.953125 C 32.359375 -8.035156 31.632812 -6.253906 30.4375 -4.609375 C 29.238281 -2.972656 27.5625 -1.65625 25.40625 -0.65625 C 23.25 0.332031 20.582031 0.828125 17.40625 0.828125 C 14.0625 0.828125 11.191406 0.210938 8.796875 -1.015625 C 6.398438 -2.253906 4.5625 -4 3.28125 -6.25 C 2.007812 -8.5 1.375 -11.097656 1.375 -14.046875 L 1.375 -15.25 C 1.375 -18.238281 2.007812 -20.847656 3.28125 -23.078125 C 4.5625 -25.304688 6.40625 -27.035156 8.8125 -28.265625 C 11.226562 -29.503906 14.148438 -30.125 17.578125 -30.125 C 20.816406 -30.125 23.597656 -29.535156 25.921875 -28.359375 C 28.242188 -27.179688 30.019531 -25.566406 31.25 -23.515625 C 32.488281 -21.472656 33.109375 -19.144531 33.109375 -16.53125 Z M 17.296875 -22.21875 C 15.785156 -22.21875 14.5625 -21.882812 13.625 -21.21875 C 12.6875 -20.5625 12.050781 -19.421875 11.71875 -17.796875 L 22.4375 -17.796875 C 22.21875 -19.378906 21.675781 -20.507812 20.8125 -21.1875 C 19.945312 -21.875 18.773438 -22.21875 17.296875 -22.21875 Z M 17.296875 -22.21875"/></g></g></g><g fill-opacity="1" fill="#000000"><g transform="translate(248.235675, 233.099574)"><g><path d="M 1.375 -14.046875 L 1.375 -15.25 C 1.375 -18.238281 2.007812 -20.847656 3.28125 -23.078125 C 4.5625 -25.304688 6.40625 -27.035156 8.8125 -28.265625 C 11.226562 -29.503906 14.132812 -30.125 17.53125 -30.125 C 22.164062 -30.125 25.8125 -28.976562 28.46875 -26.6875 C 31.125 -24.40625 32.65625 -21.296875 33.0625 -17.359375 L 22.171875 -17.359375 C 21.617188 -19.898438 20.015625 -21.171875 17.359375 -21.171875 C 15.773438 -21.171875 14.492188 -20.632812 13.515625 -19.5625 C 12.535156 -18.5 12.046875 -16.863281 12.046875 -14.65625 C 12.046875 -12.4375 12.535156 -10.789062 13.515625 -9.71875 C 14.492188 -8.65625 15.773438 -8.125 17.359375 -8.125 C 20.015625 -8.125 21.632812 -9.394531 22.21875 -11.9375 L 33.109375 -11.9375 C 32.703125 -8 31.171875 -4.882812 28.515625 -2.59375 C 25.867188 -0.3125 22.207031 0.828125 17.53125 0.828125 C 14.132812 0.828125 11.226562 0.210938 8.8125 -1.015625 C 6.40625 -2.253906 4.5625 -4 3.28125 -6.25 C 2.007812 -8.5 1.375 -11.097656 1.375 -14.046875 Z M 1.375 -14.046875"/></g></g></g><g clip-path="url(#3188857982)"><g clip-path="url(#86390c4e4c)"><path fill-rule="nonzero" fill-opacity="1" d="M 284.566406 201.890625 L 317.667969 201.890625 L 317.667969 234.992188 L 284.566406 234.992188 Z M 284.566406 201.890625" fill="#8511b4"/></g></g><g clip-path="url(#e621434d0c)"><path fill-rule="nonzero" fill-opacity="1" d="M 311.980469 219.746094 L 304.210938 219.746094 L 309.464844 225 L 307.730469 226.734375 L 302.375 221.382812 L 302.375 228.980469 L 299.925781 228.980469 L 299.925781 221.472656 L 294.351562 227.046875 L 292.503906 225.199219 L 297.957031 219.746094 L 290.242188 219.746094 L 290.242188 217.128906 L 298.128906 217.128906 L 292.820312 211.820312 L 294.554688 210.085938 L 299.925781 215.460938 L 299.925781 207.894531 L 302.375 207.894531 L 302.375 215.320312 L 307.871094 209.824219 L 309.71875 211.679688 L 304.269531 217.128906 L 311.980469 217.128906 Z M 311.980469 219.746094" fill="#ffffff"/></g><g clip-path="url(#952b2ceb48)"><path fill-rule="nonzero" fill-opacity="1" d="M 216.75 164.027344 L 230.675781 175.292969 L 228.132812 181.324219 L 206.757812 164.027344 L 237.519531 139.132812 L 237.519531 147.21875 Z M 263.179688 146.734375 L 260.636719 152.765625 L 274.5625 164.027344 L 253.792969 180.820312 L 253.792969 188.90625 L 284.558594 164.015625 Z M 252.746094 139.132812 L 231.738281 188.90625 L 238.566406 188.90625 L 259.574219 139.132812 Z M 252.746094 139.132812" fill="#8511b4"/></g><g fill-opacity="1" fill="#000000"><g transform="translate(99.11037, 186.150413)"><g><path d="M 22.9375 -24.109375 L 22.9375 -40.359375 L 33.5625 -40.359375 L 33.5625 0 L 28.578125 0 L 25.046875 -8.84375 C 24.335938 -5.75 22.941406 -3.363281 20.859375 -1.6875 C 18.785156 -0.0078125 16.382812 0.828125 13.65625 0.828125 C 11.476562 0.828125 9.445312 0.226562 7.5625 -0.96875 C 5.6875 -2.164062 4.1875 -3.878906 3.0625 -6.109375 C 1.9375 -8.335938 1.375 -10.984375 1.375 -14.046875 L 1.375 -15.25 C 1.375 -18.3125 1.9375 -20.957031 3.0625 -23.1875 C 4.1875 -25.414062 5.6875 -27.128906 7.5625 -28.328125 C 9.445312 -29.523438 11.476562 -30.125 13.65625 -30.125 C 15.601562 -30.125 17.390625 -29.609375 19.015625 -28.578125 C 20.640625 -27.546875 21.945312 -26.054688 22.9375 -24.109375 Z M 17.46875 -8.34375 C 19.09375 -8.34375 20.410156 -8.882812 21.421875 -9.96875 C 22.429688 -11.0625 22.9375 -12.625 22.9375 -14.65625 C 22.9375 -16.71875 22.429688 -18.28125 21.421875 -19.34375 C 20.410156 -20.414062 19.09375 -20.953125 17.46875 -20.953125 C 15.8125 -20.953125 14.492188 -20.425781 13.515625 -19.375 C 12.535156 -18.320312 12.046875 -16.75 12.046875 -14.65625 C 12.046875 -12.550781 12.535156 -10.972656 13.515625 -9.921875 C 14.492188 -8.867188 15.8125 -8.34375 17.46875 -8.34375 Z M 17.46875 -8.34375"/></g></g></g><g fill-opacity="1" fill="#000000"><g transform="translate(135.869763, 186.150413)"><g><path d="M 33.109375 -16.53125 C 33.109375 -15.019531 33.035156 -13.65625 32.890625 -12.4375 L 11.609375 -12.4375 C 11.867188 -10.632812 12.445312 -9.34375 13.34375 -8.5625 C 14.25 -7.789062 15.382812 -7.40625 16.75 -7.40625 C 18.1875 -7.40625 19.253906 -7.632812 19.953125 -8.09375 C 20.648438 -8.5625 21.1875 -9.179688 21.5625 -9.953125 L 32.609375 -9.953125 C 32.359375 -8.035156 31.632812 -6.253906 30.4375 -4.609375 C 29.238281 -2.972656 27.5625 -1.65625 25.40625 -0.65625 C 23.25 0.332031 20.582031 0.828125 17.40625 0.828125 C 14.0625 0.828125 11.191406 0.210938 8.796875 -1.015625 C 6.398438 -2.253906 4.5625 -4 3.28125 -6.25 C 2.007812 -8.5 1.375 -11.097656 1.375 -14.046875 L 1.375 -15.25 C 1.375 -18.238281 2.007812 -20.847656 3.28125 -23.078125 C 4.5625 -25.304688 6.40625 -27.035156 8.8125 -28.265625 C 11.226562 -29.503906 14.148438 -30.125 17.578125 -30.125 C 20.816406 -30.125 23.597656 -29.535156 25.921875 -28.359375 C 28.242188 -27.179688 30.019531 -25.566406 31.25 -23.515625 C 32.488281 -21.472656 33.109375 -19.144531 33.109375 -16.53125 Z M 17.296875 -22.21875 C 15.785156 -22.21875 14.5625 -21.882812 13.625 -21.21875 C 12.6875 -20.5625 12.050781 -19.421875 11.71875 -17.796875 L 22.4375 -17.796875 C 22.21875 -19.378906 21.675781 -20.507812 20.8125 -21.1875 C 19.945312 -21.875 18.773438 -22.21875 17.296875 -22.21875 Z M 17.296875 -22.21875"/></g></g></g><g fill-opacity="1" fill="#000000"><g transform="translate(170.362791, 186.150413)"><g><path d="M 15.375 -14.046875 L 20.78125 -29.296875 L 31.515625 -29.296875 L 19.90625 0 L 10.71875 0 L -0.828125 -29.296875 L 9.953125 -29.296875 Z M 15.375 -14.046875"/></g></g></g></svg>